<svg width="1150" height="77" viewBox="0 0 1150 77" fill="none" xmlns="http://www.w3.org/2000/svg">
<rect x="34.0146" width="11.3385" height="76" fill="white" fill-opacity="0.09"/>
<rect x="110.548" width="11.3385" height="76" fill="white" fill-opacity="0.09"/>
<rect x="87.873" width="5.66927" height="76" fill="white" fill-opacity="0.09"/>
<rect x="62.3604" width="2.83463" height="76" fill="white" fill-opacity="0.09"/>
<rect x="82.2031" width="2.83463" height="76" fill="white" fill-opacity="0.09"/>
<rect x="73.7002" width="2.83463" height="76" fill="white" fill-opacity="0.09"/>
<rect x="11.3359" width="5.66927" height="76" fill="white" fill-opacity="0.09"/>
<rect width="5.66927" height="76" fill="white" fill-opacity="0.09"/>
<rect x="124.724" width="11.3385" height="76" fill="white" fill-opacity="0.09"/>
<rect x="181.413" width="11.3385" height="76" fill="white" fill-opacity="0.09"/>
<rect x="221.099" width="11.3385" height="76" fill="white" fill-opacity="0.09"/>
<rect x="235.272" width="5.66927" height="76" fill="white" fill-opacity="0.09"/>
<rect x="209.762" width="2.83463" height="76" fill="white" fill-opacity="0.09"/>
<rect x="201.256" width="2.83463" height="76" fill="white" fill-opacity="0.09"/>
<rect x="158.738" width="5.66927" height="76" fill="white" fill-opacity="0.09"/>
<rect x="147.398" width="5.66927" height="76" fill="white" fill-opacity="0.09"/>
<rect width="11.3385" height="76" transform="matrix(1 0 0 -1 285.335 76)" fill="white" fill-opacity="0.09"/>
<rect width="8" height="76" transform="matrix(1 0 0 -1 273.32 76.3999)" fill="white" fill-opacity="0.09"/>
<rect width="5.66927" height="76" transform="matrix(1 0 0 -1 339.193 76)" fill="white" fill-opacity="0.09"/>
<rect width="2.83463" height="76" transform="matrix(1 0 0 -1 313.681 76)" fill="white" fill-opacity="0.09"/>
<rect width="2.83463" height="76" transform="matrix(1 0 0 -1 333.523 76)" fill="white" fill-opacity="0.09"/>
<rect width="2.83463" height="76" transform="matrix(1 0 0 -1 325.021 76)" fill="white" fill-opacity="0.09"/>
<rect width="5.66927" height="76" transform="matrix(1 0 0 -1 262.656 76)" fill="white" fill-opacity="0.09"/>
<rect width="5.66927" height="76" transform="matrix(1 0 0 -1 251.32 76)" fill="white" fill-opacity="0.09"/>
<rect width="11.3385" height="76" transform="matrix(1 0 0 -1 349.32 76)" fill="white" fill-opacity="0.09"/>
<rect width="11.3385" height="76" transform="matrix(1 0 0 -1 432.733 76)" fill="white" fill-opacity="0.09"/>
<rect width="5.66927" height="76" transform="matrix(1 0 0 -1 486.593 76)" fill="white" fill-opacity="0.09"/>
<rect width="2.83463" height="76" transform="matrix(1 0 0 -1 461.082 76)" fill="white" fill-opacity="0.09"/>
<rect width="2.83463" height="76" transform="matrix(1 0 0 -1 452.576 76)" fill="white" fill-opacity="0.09"/>
<rect width="5.66927" height="76" transform="matrix(1 0 0 -1 410.059 76)" fill="white" fill-opacity="0.09"/>
<rect width="5.66927" height="76" transform="matrix(1 0 0 -1 398.719 76)" fill="white" fill-opacity="0.09"/>
<rect x="511.32" width="11.3385" height="76" fill="white" fill-opacity="0.09"/>
<rect x="568.014" width="11.3385" height="76" fill="white" fill-opacity="0.09"/>
<rect x="644.547" width="11.3385" height="76" fill="white" fill-opacity="0.09"/>
<rect x="621.872" width="5.66927" height="76" fill="white" fill-opacity="0.09"/>
<rect x="596.359" width="2.83463" height="76" fill="white" fill-opacity="0.09"/>
<rect x="616.202" width="2.83463" height="76" fill="white" fill-opacity="0.09"/>
<rect x="607.699" width="2.83463" height="76" fill="white" fill-opacity="0.09"/>
<rect x="545.335" width="5.66927" height="76" fill="white" fill-opacity="0.09"/>
<rect x="533.999" width="5.66927" height="76" fill="white" fill-opacity="0.09"/>
<rect x="658.723" width="11.3385" height="76" fill="white" fill-opacity="0.09"/>
<rect width="11.3385" height="76" transform="matrix(-1 0 0 1 720.66 0)" fill="white" fill-opacity="0.09"/>
<rect x="769.271" width="5.66927" height="76" fill="white" fill-opacity="0.09"/>
<rect width="2.83463" height="76" transform="matrix(-1 0 0 1 731.996 0)" fill="white" fill-opacity="0.09"/>
<rect width="2.83463" height="76" transform="matrix(-1 0 0 1 740.504 0)" fill="white" fill-opacity="0.09"/>
<rect x="692.737" width="5.66927" height="76" fill="white" fill-opacity="0.09"/>
<rect x="681.397" width="5.66927" height="76" fill="white" fill-opacity="0.09"/>
<rect x="745.32" y="0.399902" width="4" height="76" fill="white" fill-opacity="0.09"/>
<rect x="754.32" y="0.399902" width="4" height="76" fill="white" fill-opacity="0.09"/>
<rect x="838.391" width="11.3385" height="76" fill="white" fill-opacity="0.09"/>
<rect x="785.32" width="11.3385" height="76" fill="white" fill-opacity="0.09"/>
<rect x="914.926" width="11.3385" height="76" fill="white" fill-opacity="0.09"/>
<rect x="892.251" width="5.66927" height="76" fill="white" fill-opacity="0.09"/>
<rect x="866.738" width="2.83463" height="76" fill="white" fill-opacity="0.09"/>
<rect x="886.581" width="2.83463" height="76" fill="white" fill-opacity="0.09"/>
<rect x="878.078" width="2.83463" height="76" fill="white" fill-opacity="0.09"/>
<rect x="815.714" width="5.66927" height="76" fill="white" fill-opacity="0.09"/>
<rect x="804.378" width="5.66927" height="76" fill="white" fill-opacity="0.09"/>
<rect x="985.791" width="11.3385" height="76" fill="white" fill-opacity="0.09"/>
<rect x="1025.48" width="11.3385" height="76" fill="white" fill-opacity="0.09"/>
<rect x="1039.65" width="5.66927" height="76" fill="white" fill-opacity="0.09"/>
<rect x="1014.14" width="2.83463" height="76" fill="white" fill-opacity="0.09"/>
<rect x="1005.63" width="2.83463" height="76" fill="white" fill-opacity="0.09"/>
<rect x="963.116" width="5.66927" height="76" fill="white" fill-opacity="0.09"/>
<rect x="951.776" width="5.66927" height="76" fill="white" fill-opacity="0.09"/>
<rect x="1050.32" width="11.3385" height="76" fill="white" fill-opacity="0.09"/>
<rect x="1107.01" width="11.3385" height="76" fill="white" fill-opacity="0.09"/>
<rect x="1135.36" width="2.83463" height="76" fill="white" fill-opacity="0.09"/>
<rect x="1146.7" width="2.83463" height="76" fill="white" fill-opacity="0.09"/>
<rect x="1084.33" width="5.66927" height="76" fill="white" fill-opacity="0.09"/>
<rect x="1073" width="5.66927" height="76" fill="white" fill-opacity="0.09"/>
</svg>
