<svg width="42" height="42" viewBox="0 0 42 42" fill="none" xmlns="http://www.w3.org/2000/svg">
<circle cx="21.0364" cy="21.2387" r="15.5515" transform="rotate(2.26222 21.0364 21.2387)" fill="#18191B"/>
<path d="M23.888 7.38041C20.5918 6.39219 17.0733 6.60078 13.9648 7.9687C10.8564 9.33661 8.36193 11.7741 6.92972 14.8432C5.49751 17.9123 5.2215 21.4116 6.15129 24.7122" stroke="#410C01" stroke-width="3.75382" stroke-linecap="round"/>
<path d="M6.19941 19.7964C5.95146 23.1899 6.93071 26.5839 8.96115 29.3682C10.9916 32.1526 13.9401 34.1448 17.2767 34.9867C20.6133 35.8286 24.1192 35.4651 27.1643 33.9615C30.2094 32.4579 32.594 29.9127 33.8895 26.7835C35.185 23.6543 35.3065 20.1462 34.2321 16.8898C33.1577 13.6334 30.9579 10.8421 28.028 9.01771C25.0982 7.19332 21.6304 6.45543 18.248 6.93665" stroke="#FF38BB" stroke-width="4.29008" stroke-linecap="round"/>
<path d="M17.7629 20.5107C18.189 20.2634 18.4634 19.8018 18.484 19.2822C18.5209 18.347 17.7481 17.6439 16.6529 17.6007C15.5578 17.5574 14.7316 18.2053 14.6949 19.1326C14.6744 19.6522 14.9113 20.1419 15.3248 20.4144C14.7216 20.6868 14.3736 21.1855 14.3487 21.817C14.3067 22.8802 15.179 23.6992 16.4101 23.7479C17.6411 23.7965 18.5913 23.0494 18.6333 21.9863C18.6583 21.3547 18.3425 20.8379 17.7629 20.5107ZM16.6191 18.456C17.1227 18.4759 17.4692 18.8258 17.4502 19.3055C17.4316 19.7771 17.0589 20.0906 16.5553 20.0707C16.0437 20.0505 15.705 19.7089 15.7236 19.2373C15.7425 18.7576 16.1155 18.4361 16.6191 18.456ZM16.4442 22.8845C15.7887 22.8586 15.3408 22.4406 15.3636 21.8651C15.3863 21.2895 15.8657 20.9082 16.5212 20.9341C17.1847 20.9603 17.6326 21.3783 17.6098 21.9538C17.5871 22.5294 17.1077 22.9107 16.4442 22.8845ZM19.4614 24.7091L20.1249 24.7353L20.796 22.7442L19.8607 22.7073L19.4614 24.7091ZM25.2571 20.8068C25.6832 20.5594 25.9576 20.0979 25.9781 19.5783C26.0151 18.643 25.2422 17.94 24.1471 17.8967C23.0519 17.8534 22.2257 18.5013 22.1891 19.4286C22.1686 19.9482 22.4054 20.4379 22.819 20.7105C22.2157 20.9829 21.8678 21.4815 21.8428 22.113C21.8008 23.1762 22.6732 23.9953 23.9042 24.0439C25.1353 24.0925 26.0855 23.3455 26.1275 22.2823C26.1525 21.6508 25.8366 21.1339 25.2571 20.8068ZM24.1133 18.752C24.6169 18.7719 24.9633 19.1219 24.9444 19.6015C24.9258 20.0731 24.5531 20.3867 24.0495 20.3668C23.5379 20.3466 23.1991 20.0049 23.2177 19.5333C23.2367 19.0537 23.6097 18.7321 24.1133 18.752ZM23.9383 23.1806C23.2829 23.1547 22.835 22.7367 22.8577 22.1611C22.8805 21.5856 23.3599 21.2042 24.0154 21.2301C24.6789 21.2563 25.1267 21.6743 25.104 22.2499C25.0812 22.8254 24.6018 23.2068 23.9383 23.1806Z" fill="white" fill-opacity="0.86"/>
</svg>
