<svg width="40" height="41" viewBox="0 0 40 41" fill="none" xmlns="http://www.w3.org/2000/svg">
<circle cx="20.2385" cy="20.2381" r="15.5515" fill="#18191B"/>
<path d="M22.5405 6.27792C19.2078 5.4206 15.7002 5.76793 12.6481 7.25748C9.59608 8.74703 7.19972 11.2811 5.88974 14.4043C4.57976 17.5274 4.44207 21.0349 5.50141 24.2962" stroke="#410C01" stroke-width="3.75382" stroke-linecap="round"/>
<path d="M5.35604 19.3827C5.24223 22.7834 6.35468 26.1361 8.49345 28.8381C10.6322 31.5401 13.657 33.4144 17.0243 34.1239C20.3915 34.8335 23.8803 34.3319 26.8637 32.7092C29.8471 31.0866 32.1294 28.4493 33.3004 25.2714C34.4714 22.0935 34.4543 18.5834 33.2522 15.3719C32.0501 12.1604 29.7418 9.45814 26.7422 7.75083C23.7426 6.04351 20.2484 5.44308 16.8876 6.05744" stroke="#EAF854" stroke-width="4.29008" stroke-linecap="round"/>
<path d="M16.9388 19.64C17.3548 19.376 17.6108 18.904 17.6108 18.384C17.6108 17.448 16.8108 16.776 15.7148 16.776C14.6188 16.776 13.8188 17.456 13.8188 18.384C13.8188 18.904 14.0748 19.384 14.4988 19.64C13.9068 19.936 13.5788 20.448 13.5788 21.08C13.5788 22.144 14.4828 22.928 15.7148 22.928C16.9468 22.928 17.8668 22.144 17.8668 21.08C17.8668 20.448 17.5308 19.944 16.9388 19.64ZM15.7148 17.632C16.2188 17.632 16.5788 17.968 16.5788 18.448C16.5788 18.92 16.2188 19.248 15.7148 19.248C15.2028 19.248 14.8508 18.92 14.8508 18.448C14.8508 17.968 15.2108 17.632 15.7148 17.632ZM15.7148 22.064C15.0588 22.064 14.5948 21.664 14.5948 21.088C14.5948 20.512 15.0588 20.112 15.7148 20.112C16.3788 20.112 16.8428 20.512 16.8428 21.088C16.8428 21.664 16.3788 22.064 15.7148 22.064ZM18.8017 23.768H19.4657L20.0577 21.752H19.1217L18.8017 23.768ZM24.4388 19.64C24.8548 19.376 25.1108 18.904 25.1108 18.384C25.1108 17.448 24.3108 16.776 23.2148 16.776C22.1188 16.776 21.3188 17.456 21.3188 18.384C21.3188 18.904 21.5748 19.384 21.9988 19.64C21.4068 19.936 21.0788 20.448 21.0788 21.08C21.0788 22.144 21.9828 22.928 23.2148 22.928C24.4468 22.928 25.3668 22.144 25.3668 21.08C25.3668 20.448 25.0308 19.944 24.4388 19.64ZM23.2148 17.632C23.7188 17.632 24.0788 17.968 24.0788 18.448C24.0788 18.92 23.7188 19.248 23.2148 19.248C22.7028 19.248 22.3508 18.92 22.3508 18.448C22.3508 17.968 22.7108 17.632 23.2148 17.632ZM23.2148 22.064C22.5588 22.064 22.0948 21.664 22.0948 21.088C22.0948 20.512 22.5588 20.112 23.2148 20.112C23.8788 20.112 24.3428 20.512 24.3428 21.088C24.3428 21.664 23.8788 22.064 23.2148 22.064Z" fill="white" fill-opacity="0.86"/>
</svg>
