<svg width="18" height="14" viewBox="0 0 18 14" fill="none" xmlns="http://www.w3.org/2000/svg">
<path d="M16.6846 5.994C17.0791 6.48114 17.0791 7.13878 16.6846 7.62514C15.4421 9.1565 12.461 12.3096 8.9806 12.3096C5.50018 12.3096 2.51911 9.1565 1.27658 7.62514C1.08465 7.39189 0.980469 7.10493 0.980469 6.80957C0.980469 6.51421 1.08465 6.22725 1.27658 5.994C2.51911 4.46264 5.50018 1.30957 8.9806 1.30957C12.461 1.30957 15.4421 4.46264 16.6846 5.994V5.994Z" stroke="#4E4E4E" stroke-width="1.57576" stroke-linecap="round" stroke-linejoin="round"/>
<path d="M8.9806 9.16692C10.3595 9.16692 11.4773 8.11159 11.4773 6.80978C11.4773 5.50797 10.3595 4.45264 8.9806 4.45264C7.6017 4.45264 6.48389 5.50797 6.48389 6.80978C6.48389 8.11159 7.6017 9.16692 8.9806 9.16692Z" stroke="#4E4E4E" stroke-width="1.57576" stroke-linecap="round" stroke-linejoin="round"/>
</svg>
