<svg width="43" height="43" viewBox="0 0 43 43" fill="none" xmlns="http://www.w3.org/2000/svg">
<circle cx="21.4204" cy="21.42" r="15.5515" transform="rotate(-3.27957 21.4204 21.42)" fill="#18191B"/>
<path d="M22.9198 7.35077C19.5436 6.68549 16.0616 7.2329 13.0998 8.89461C10.138 10.5563 7.89061 13.2234 6.76147 16.4164C5.63234 19.6094 5.69554 23.119 6.93973 26.3145" stroke="#410C01" stroke-width="3.75382" stroke-linecap="round"/>
<path d="M6.51325 21.4171C6.59417 24.8187 7.89659 28.1022 10.1864 30.6774C12.4763 33.2527 15.6034 34.9508 19.0057 35.4666C22.408 35.9824 25.8624 35.282 28.7481 33.4913C31.6338 31.7006 33.7615 28.9371 34.7487 25.6974C35.736 22.4577 35.5181 18.9543 34.1343 15.8169C32.7504 12.6794 30.2914 10.1137 27.199 8.58075C24.1067 7.04784 20.5838 6.64829 17.2637 7.45391" stroke="#F86F54" stroke-width="4.29008" stroke-linecap="round"/>
<path d="M18.0918 21.0111C18.492 20.7238 18.7206 20.2379 18.6908 19.7187C18.6373 18.7843 17.8002 18.1591 16.706 18.2218C15.6118 18.2845 14.852 19.0092 14.9051 19.9357C14.9348 20.4548 15.2178 20.9194 15.6558 21.1507C15.0817 21.4801 14.7835 22.01 14.8197 22.641C14.8805 23.7032 15.8279 24.4342 17.0579 24.3638C18.2879 24.2933 19.1615 23.4579 19.1007 22.3957C19.0645 21.7647 18.7002 21.2808 18.0918 21.0111ZM16.7549 19.0764C17.2581 19.0476 17.6367 19.3625 17.6642 19.8417C17.6912 20.3129 17.3506 20.661 16.8474 20.6898C16.3362 20.7191 15.966 20.4118 15.939 19.9405C15.9116 19.4613 16.2518 19.1053 16.7549 19.0764ZM17.0085 23.5012C16.3535 23.5387 15.8674 23.1659 15.8345 22.5909C15.8015 22.0158 16.2419 21.5899 16.8968 21.5524C17.5597 21.5144 18.0458 21.8872 18.0788 22.4623C18.1117 23.0373 17.6714 23.4632 17.0085 23.5012ZM20.1878 25.0258L20.8507 24.9878L21.3264 22.9412L20.3919 22.9948L20.1878 25.0258ZM25.5795 20.5821C25.9797 20.2947 26.2083 19.8088 26.1786 19.2897C26.125 18.3552 25.2879 17.7301 24.1937 17.7928C23.0995 17.8555 22.3397 18.5801 22.3928 19.5066C22.4225 20.0258 22.7056 20.4903 23.1435 20.7217C22.5694 21.051 22.2712 21.581 22.3074 22.2119C22.3683 23.2742 23.3156 24.0052 24.5456 23.9347C25.7756 23.8642 26.6492 23.0289 26.5884 21.9666C26.5522 21.3357 26.1879 20.8517 25.5795 20.5821ZM24.2426 18.6474C24.7458 18.6185 25.1245 18.9334 25.1519 19.4126C25.1789 19.8838 24.8383 20.2319 24.3351 20.2607C23.8239 20.29 23.4537 19.9827 23.4267 19.5115C23.3993 19.0323 23.7395 18.6762 24.2426 18.6474ZM24.4962 23.0721C23.8413 23.1096 23.3551 22.7368 23.3222 22.1618C23.2892 21.5867 23.7296 21.1608 24.3845 21.1233C25.0474 21.0853 25.5336 21.4581 25.5665 22.0332C25.5995 22.6082 25.1591 23.0341 24.4962 23.0721Z" fill="white" fill-opacity="0.86"/>
</svg>
